<?xml version="1.0" encoding="UTF-8"?>
<svg width="23px" height="38px" viewBox="0 0 23 38" version="1.1" xmlns="http://www.w3.org/2000/svg" xmlns:xlink="http://www.w3.org/1999/xlink">
    <title>Group 12</title>
    <defs>
        <polygon id="path-1" points="0 0 19 0 19 28 0 28"></polygon>
    </defs>
    <g id="設計稿" stroke="none" stroke-width="1" fill="none" fill-rule="evenodd">
        <g id="B版_棒球活動網頁" transform="translate(-1132.000000, -2196.000000)">
            <g id="Group-12" transform="translate(1133.000000, 2197.000000)">
                <g id="Group-10">
                    <path d="M2.5,0 L15.5,0 C16.8807119,9.72685834e-16 18,1.11928813 18,2.5 L18,22.5994975 L18,22.5994975 C16.6966373,22.5741626 15.8473363,22.5741626 15.4520971,22.5994975 C14.692341,22.6481979 14.8180873,22.4610725 14.5613533,22.0663815 C13.9919745,21.1910446 14.2877885,17.6256698 14.1680474,16.3324841 C14.1055854,15.657904 13.5495696,15.2171215 12.5,15.0101366 C11.8434455,14.9101592 11.3786934,14.9101592 11.1057436,15.0101366 C9.7980414,15.4891283 10.4671183,25.6598537 9.7982263,25.8705775 C9.13863264,26.078372 7.60415422,24.0219116 6.59777687,24.9386544 C6.46798424,25.0568868 6.24966657,24.9007613 5.99500676,25.1991326 C5.76228493,25.4718003 5.48892234,26.1953507 5.43484197,26.4006151 C5.31075388,26.8715967 5.51131341,27.7170205 6.03652056,28.9368864 C6.04643961,28.9598186 6.03584568,28.9864319 6.01289693,28.9963124 C6.00724631,28.9987452 6.00115886,29 5.99500676,29 L5.99500676,29 L5.99500676,29 L2.5,29 C1.11928813,29 6.13177648e-16,27.8807119 0,26.5 L0,2.5 C-1.69088438e-16,1.11928813 1.11928813,2.53632657e-16 2.5,0 Z" id="Rectangle" stroke="#FFFFFF" stroke-width="1.5"></path>
                    <path d="M18.8307453,33.1083315 C18.7830328,33.2047171 18.7579837,33.3110599 18.7579837,33.4185976 L18.7579837,35.6059933 L10.1196325,35.6059933 L10.1196325,32.7522624 C10.1196325,32.549534 10.0309667,32.3563645 9.87709388,32.2237347 C8.58050624,31.1061396 5.13884335,27.5323047 6.29905272,25.832413 C6.47757706,25.5715346 6.69466901,25.4289477 6.98213692,25.3835429 C7.87873463,25.2441422 9.14748998,26.0450986 9.56020325,26.3653219 C9.77013832,26.5294164 10.0556182,26.5588897 10.292988,26.4421914 C10.5323458,26.3254931 10.683833,26.0821394 10.683833,25.815685 L10.683833,16.7295492 C10.683833,16.0484773 10.7458593,15.6314701 11.9665045,15.6314701 C13.098484,15.6314701 13.5020523,16.1986317 13.5020523,16.7295492 L13.5020523,22.6759835 C13.5020523,22.8791102 13.5907181,23.0722797 13.7449886,23.2049095 C13.8996567,23.3375393 14.1056157,23.3956893 14.3036226,23.3650211 C15.6745623,23.1551236 19.4255613,23.0503739 20.3253399,25.0661076 C21.2931087,27.2367752 19.5746629,31.6071854 18.8307453,33.1083315 M21.5956856,24.4973529 C20.4008847,21.8184703 16.5787145,21.7794381 14.8936674,21.9021107 L14.8936674,16.7295492 C14.8936674,15.595226 14.0742049,14.380847 12.2869736,14.2506069 L15.8403633,10.1542186 C16.0920468,9.86346863 16.0610337,9.4233608 15.7711801,9.17084644 C15.4813266,8.91833208 15.0423714,8.94939851 14.7894951,9.2397502 L7.6075685,17.5193535 L4.21282292,13.7407988 C3.95597054,13.4548282 3.51622018,13.4313293 3.23034268,13.6890214 C2.94486279,13.9463152 2.92140413,14.3872196 3.17865412,14.6731901 L7.0998278,19.0380243 C7.23183243,19.1849924 7.41989926,19.2686328 7.617111,19.2686328 L7.62347267,19.2686328 C7.82227482,19.2670397 8.01153447,19.1794164 8.14234629,19.0288637 L9.29221795,17.7033624 L9.29221795,24.5590875 C8.59004874,24.1994337 7.65766664,23.8684567 6.77021383,24.0058659 C6.10422661,24.109819 5.54400214,24.4690745 5.15077148,25.0453967 C3.25459654,27.8226563 7.53321649,31.988745 8.72801743,33.0669096 L8.72801743,36.3029966 C8.72801743,36.6877425 9.03934161,37 9.42382497,37 L19.4537912,37 C19.8382746,37 20.1495988,36.6877425 20.1495988,36.3029966 L20.1495988,33.5783109 C20.6084341,32.6124634 22.9193104,27.4653923 21.5956856,24.4973529" id="Fill-1" fill="#FFFFFF"></path>
                </g>
                <g id="Group-5" transform="translate(3.000000, 9.000000)">
                    <g id="Group-3"></g>
                    <mask id="mask-2" fill="white">
                        <use xlink:href="#path-1"></use>
                    </mask>
                    <g id="Clip-2"></g>
                </g>
            </g>
        </g>
    </g>
</svg>