<?xml version="1.0" encoding="UTF-8"?>
<svg width="29px" height="29px" viewBox="0 0 29 29" version="1.1" xmlns="http://www.w3.org/2000/svg" xmlns:xlink="http://www.w3.org/1999/xlink">
    <title>Group 15</title>
    <g id="設計稿" stroke="none" stroke-width="1" fill="none" fill-rule="evenodd">
        <g id="B版_棒球活動網頁" transform="translate(-1129.000000, -2293.000000)" stroke="#FFFFFF" stroke-width="1.5">
            <g id="Group-20" transform="translate(1104.000000, 2280.000000)">
                <g id="Group-17" transform="translate(39.500000, 27.500000) rotate(7.000000) translate(-39.500000, -27.500000) translate(27.000000, 15.000000)">
                    <g id="Group-15" transform="translate(0.452631, 0.400454)">
                        <circle id="Oval" cx="12" cy="12" r="11.25"></circle>
                        <path d="M5.15920795,2.40287727 C7.69535605,14.7901619 5.82915532,19.82652 4.41301483,20.4028773" id="Path-6"></path>
                        <path d="M17.70147,2.26878394 C20.2376181,14.6560685 18.3714174,19.6924267 16.9552769,20.2687839" id="Path-6-Copy" transform="translate(17.955277, 11.268784) scale(-1, 1) translate(-17.955277, -11.268784) "></path>
                        <path d="M4.73240141,6.10827965 C5.54720407,5.44161298 6.47129275,5.27494632 7.50466743,5.60827965" id="Path-10" stroke-linecap="round" stroke-linejoin="round" transform="translate(6.118534, 5.774946) rotate(-7.000000) translate(-6.118534, -5.774946) "></path>
                        <path d="M5.21987879,10.0784643 C6.03468145,9.41179759 6.95877012,9.24513092 7.99214481,9.57846426" id="Path-10-Copy" stroke-linecap="round" stroke-linejoin="round" transform="translate(6.606012, 9.745131) rotate(-7.000000) translate(-6.606012, -9.745131) "></path>
                        <path d="M4.71481001,14.1705182 C5.52961267,13.5038515 6.45370134,13.3371849 7.48707603,13.6705182" id="Path-10-Copy-2" stroke-linecap="round" stroke-linejoin="round" transform="translate(6.100943, 13.837185) scale(1, -1) rotate(7.000000) translate(-6.100943, -13.837185) "></path>
                        <path d="M5.08041804,17.1481567 C5.8952207,16.48149 6.81930937,16.3148233 7.85268406,16.6481567" id="Path-10-Copy-3" stroke-linecap="round" stroke-linejoin="round" transform="translate(6.466551, 16.814823) scale(1, -1) rotate(7.000000) translate(-6.466551, -16.814823) "></path>
                        <path d="M15.7722784,5.76026303 C16.5870811,5.09359636 17.5111698,4.92692969 18.5445444,5.26026303" id="Path-10" stroke-linecap="round" stroke-linejoin="round" transform="translate(17.158411, 5.426930) scale(-1, 1) rotate(7.000000) translate(-17.158411, -5.426930) "></path>
                        <path d="M16.2597558,9.73044763 C17.0745585,9.06378097 17.9986471,8.8971143 19.0320218,9.23044763" id="Path-10-Copy" stroke-linecap="round" stroke-linejoin="round" transform="translate(17.645889, 9.397114) scale(-1, 1) rotate(7.000000) translate(-17.645889, -9.397114) "></path>
                        <path d="M15.754687,13.8225016 C16.5694897,13.1558349 17.4935784,12.9891682 18.526953,13.3225016" id="Path-10-Copy-2" stroke-linecap="round" stroke-linejoin="round" transform="translate(17.140820, 13.489168) scale(-1, -1) rotate(-7.000000) translate(-17.140820, -13.489168) "></path>
                        <path d="M16.2421644,17.7926862 C17.0569671,17.1260195 17.9810557,16.9593529 19.0144304,17.2926862" id="Path-10-Copy-3" stroke-linecap="round" stroke-linejoin="round" transform="translate(17.628297, 17.459353) scale(-1, -1) rotate(-7.000000) translate(-17.628297, -17.459353) "></path>
                    </g>
                </g>
            </g>
        </g>
    </g>
</svg>