<svg xmlns="http://www.w3.org/2000/svg" xmlns:xlink="http://www.w3.org/1999/xlink" viewBox="0 0 152.01 151.64"><defs><style>.cls-1{fill:none;}.cls-2{clip-path:url(#clip-path);}.cls-3{fill:#fff;}</style><clipPath id="clip-path" transform="translate(-19.99 -20.05)"><rect class="cls-1" width="192" height="192"/></clipPath></defs><g id="圖層_2" data-name="圖層 2"><g id="轉外框"><g class="cls-2"><path class="cls-3" d="M120.37,43c.13,0,12.84-1.07,21.5,6.45,5.11,4.45,7.93,11.14,8.36,19.9a4,4,0,0,0,2.57,3.55,4.1,4.1,0,0,0,1.42.26,4,4,0,0,0,2.85-1.2l13.79-14a4,4,0,0,0-5.71-5.6l-8.07,8.21a31.5,31.5,0,0,0-10-17.19c-11.29-9.76-26.79-8.39-27.44-8.32a4,4,0,0,0,.76,8Z" transform="translate(-19.99 -20.05)"/><path class="cls-3" d="M71.63,148.45c-.13,0-12.84,1.08-21.5-6.45-5.11-4.45-7.93-11.14-8.36-19.9a4,4,0,0,0-6.84-2.61l-13.79,14a4,4,0,0,0,5.71,5.61l8.07-8.21a31.51,31.51,0,0,0,10,17.18c8.67,7.49,19.81,8.43,24.82,8.43,1.51,0,2.47-.09,2.62-.1a4,4,0,0,0-.76-8Z" transform="translate(-19.99 -20.05)"/><path class="cls-3" d="M126.87,81.42a44.84,44.84,0,0,0-22.5,6,45.24,45.24,0,1,0-16.74,16.83,45.12,45.12,0,1,0,39.24-22.86ZM28,65.18a37.14,37.14,0,1,1,37.13,37.14A37.17,37.17,0,0,1,28,65.18Zm98.87,98.51A37.14,37.14,0,1,1,164,126.56,37.18,37.18,0,0,1,126.87,163.69Z" transform="translate(-19.99 -20.05)"/><path class="cls-3" d="M68.55,42.16a4,4,0,0,0-3.68-2.44h0a4,4,0,0,0-3.67,2.49L47,76.94a4,4,0,1,0,7.4,3l3.13-7.64H72.68l3.42,8a4,4,0,0,0,3.69,2.44,4.11,4.11,0,0,0,1.56-.32,4,4,0,0,0,2.11-5.25ZM60.76,64.33l4.18-10.22,4.34,10.22Z" transform="translate(-19.99 -20.05)"/><path class="cls-3" d="M138.45,127a12.76,12.76,0,0,0-8.95-21.75l-6.7-.06-5.11,0a4,4,0,0,0-4,4v36.61a4,4,0,0,0,4,4h15.46A11.78,11.78,0,0,0,144.92,138,12.6,12.6,0,0,0,138.45,127Zm-16.76-13.82h1l6.71.06a4.78,4.78,0,0,1,0,9.55l-7.72.06Zm11.46,28.58H121.69v-8.34h10.65a4.58,4.58,0,0,1,4.58,4.57A3.77,3.77,0,0,1,133.15,141.76Z" transform="translate(-19.99 -20.05)"/></g></g></g></svg>