<svg xmlns="http://www.w3.org/2000/svg" viewBox="0 0 169.03 53.46"><defs><style>.cls-1{fill:#54565a;}.cls-2{fill:#00a4ef;}.cls-3{fill:#ffc517;}.cls-4{fill:#ed4848;}.cls-5{fill:#00c08b;}.cls-6{fill:#f90;}</style></defs><g id="圖層_2" data-name="圖層 2"><g id="圖層_1-2" data-name="圖層 1"><path class="cls-1" d="M115.58.12v2.4h0a1.23,1.23,0,0,1,.23-.4,1.6,1.6,0,0,1,.35-.28,1.44,1.44,0,0,1,.42-.18,1.73,1.73,0,0,1,.45,0,1.92,1.92,0,0,1,.83.17,1.65,1.65,0,0,1,.59.49,2,2,0,0,1,.35.7,3.34,3.34,0,0,1,0,1.7,2.09,2.09,0,0,1-.35.7,1.63,1.63,0,0,1-.59.48,1.78,1.78,0,0,1-.83.18,1.74,1.74,0,0,1-.91-.24,1.36,1.36,0,0,1-.58-.67h0v.79h-.47V.12Zm2.76,3.05a1.81,1.81,0,0,0-.24-.57,1.49,1.49,0,0,0-.42-.41,1.28,1.28,0,0,0-.63-.15,1.4,1.4,0,0,0-.68.15,1.52,1.52,0,0,0-.46.41,1.83,1.83,0,0,0-.25.57,2.89,2.89,0,0,0-.08.65,2.74,2.74,0,0,0,.08.64,1.79,1.79,0,0,0,.25.58,1.52,1.52,0,0,0,.46.41,1.4,1.4,0,0,0,.68.15,1.28,1.28,0,0,0,.63-.15A1.49,1.49,0,0,0,118.1,5a1.77,1.77,0,0,0,.24-.58,2.29,2.29,0,0,0,.08-.64A2.41,2.41,0,0,0,118.34,3.17Z"/><path class="cls-1" d="M119.8,1.73l1.38,3.57,1.29-3.57H123l-1.82,4.81A3.22,3.22,0,0,1,121,7a1,1,0,0,1-.21.27.69.69,0,0,1-.28.15,1.49,1.49,0,0,1-.4,0h-.24a.33.33,0,0,1-.15,0V7l.17,0H120a.59.59,0,0,0,.28,0,.5.5,0,0,0,.19-.13,1.1,1.1,0,0,0,.14-.21c0-.08.08-.17.12-.26l.18-.47-1.67-4.17Z"/><path class="cls-1" d="M129.83.12V.59h-3.44V2.68h3.22v.47h-3.22V5.44h3.48v.47h-4V.12Z"/><path class="cls-1" d="M130.85,5.05h.68v.86h-.68Z"/><path class="cls-1" d="M133.29,4.75a1.28,1.28,0,0,0,.41.48,1.82,1.82,0,0,0,.6.26,3.54,3.54,0,0,0,.75.07,2.25,2.25,0,0,0,.49-.06,1.48,1.48,0,0,0,.5-.21,1.19,1.19,0,0,0,.38-.36.89.89,0,0,0,.16-.54.79.79,0,0,0-.11-.42,1,1,0,0,0-.28-.3,1.44,1.44,0,0,0-.39-.2,3.84,3.84,0,0,0-.41-.13L134.1,3a2.81,2.81,0,0,1-.49-.16,1.29,1.29,0,0,1-.42-.26,1.14,1.14,0,0,1-.29-.39,1.43,1.43,0,0,1-.11-.58,1.91,1.91,0,0,1,.08-.49,1.48,1.48,0,0,1,.31-.54,1.79,1.79,0,0,1,.61-.43,2.57,2.57,0,0,1,1-.17,3.18,3.18,0,0,1,.82.11,2.17,2.17,0,0,1,.68.34,1.7,1.7,0,0,1,.46.57,1.61,1.61,0,0,1,.18.78h-.55a1.34,1.34,0,0,0-.15-.58,1.39,1.39,0,0,0-.35-.41,1.47,1.47,0,0,0-.5-.25,1.87,1.87,0,0,0-.59-.09,2.42,2.42,0,0,0-.54.06,1.29,1.29,0,0,0-.46.2,1,1,0,0,0-.33.35,1.11,1.11,0,0,0-.12.54.91.91,0,0,0,.07.35.83.83,0,0,0,.19.26,1,1,0,0,0,.28.17l.34.11,1.41.34c.21.06.4.13.58.2a2,2,0,0,1,.48.3,1.12,1.12,0,0,1,.32.42,1.41,1.41,0,0,1,.12.61c0,.06,0,.15,0,.26A1.18,1.18,0,0,1,137,5a1.29,1.29,0,0,1-.22.37,1.2,1.2,0,0,1-.39.34,2,2,0,0,1-.61.24,3.83,3.83,0,0,1-1.82,0,2.18,2.18,0,0,1-.75-.36,1.66,1.66,0,0,1-.47-.63,2,2,0,0,1-.14-.91h.55A1.66,1.66,0,0,0,133.29,4.75Z"/><path class="cls-1" d="M138.5.12V3.71a3,3,0,0,0,.11.85,1.44,1.44,0,0,0,.34.58,1.24,1.24,0,0,0,.53.32,2.64,2.64,0,0,0,1.44,0,1.24,1.24,0,0,0,.53-.32,1.44,1.44,0,0,0,.34-.58,3,3,0,0,0,.11-.85V.12h.55V3.83a2.65,2.65,0,0,1-.13.85,1.86,1.86,0,0,1-.39.7,2,2,0,0,1-.7.47,3,3,0,0,1-2.06,0,2,2,0,0,1-.7-.47,1.86,1.86,0,0,1-.39-.7,2.65,2.65,0,0,1-.13-.85V.12Z"/><path class="cls-1" d="M144.17.12,147.54,5h0V.12h.55V5.91h-.62L144.12,1h0v4.9h-.55V.12Z"/><path class="cls-1" d="M154,.12a3.29,3.29,0,0,1,.71.07,1.83,1.83,0,0,1,.59.24,1.3,1.3,0,0,1,.41.43,1.4,1.4,0,0,1,.15.68,1.31,1.31,0,0,1-.07.44,1.22,1.22,0,0,1-.21.39,1.26,1.26,0,0,1-.31.3,1.23,1.23,0,0,1-.41.17h0a1.4,1.4,0,0,1,.89.46,1.44,1.44,0,0,1,.33,1c0,.09,0,.19,0,.31a1.69,1.69,0,0,1-.1.35,1.53,1.53,0,0,1-.21.37,1.45,1.45,0,0,1-.37.31,2.34,2.34,0,0,1-.57.22,3.69,3.69,0,0,1-.81.08h-2.45V.12Zm0,2.54a1.93,1.93,0,0,0,.58-.08,1.22,1.22,0,0,0,.41-.21,1,1,0,0,0,.24-.31,1,1,0,0,0,.08-.38c0-.73-.44-1.09-1.31-1.09h-1.89V2.66Zm0,2.78a3.7,3.7,0,0,0,.59-.05A1.46,1.46,0,0,0,155,5.2a.93.93,0,0,0,.34-.37,1.25,1.25,0,0,0,.12-.58,1,1,0,0,0-.39-.84A1.94,1.94,0,0,0,154,3.13h-1.89V5.44Z"/><path class="cls-1" d="M156.94,2.38a1.29,1.29,0,0,1,.35-.44,1.37,1.37,0,0,1,.53-.25,2.3,2.3,0,0,1,.66-.08,2.5,2.5,0,0,1,.55,0,1.23,1.23,0,0,1,.5.2,1,1,0,0,1,.36.41A1.47,1.47,0,0,1,160,3V5.17c0,.21.1.31.3.31a.47.47,0,0,0,.17,0v.43l-.16,0h-.18a.87.87,0,0,1-.31,0,.45.45,0,0,1-.18-.15.79.79,0,0,1-.09-.23,2.66,2.66,0,0,1,0-.3h0a2.82,2.82,0,0,1-.28.36,1.35,1.35,0,0,1-.32.27,1.59,1.59,0,0,1-.4.16A2,2,0,0,1,158,6a2.35,2.35,0,0,1-.54-.07,1.26,1.26,0,0,1-.45-.22,1,1,0,0,1-.3-.38,1.35,1.35,0,0,1-.11-.55,1.11,1.11,0,0,1,.19-.69,1.24,1.24,0,0,1,.52-.37,2.91,2.91,0,0,1,.72-.19l.82-.1.28,0a.4.4,0,0,0,.2-.08.37.37,0,0,0,.13-.17.7.7,0,0,0,0-.27,1,1,0,0,0-.08-.43.67.67,0,0,0-.24-.26.92.92,0,0,0-.35-.14,2.77,2.77,0,0,0-.42,0,1.27,1.27,0,0,0-.8.23.91.91,0,0,0-.32.74h-.51A1.67,1.67,0,0,1,156.94,2.38Zm2.56,1.25a.33.33,0,0,1-.19.12l-.24.06-.67.1a3.66,3.66,0,0,0-.63.14,1.24,1.24,0,0,0-.47.25.62.62,0,0,0-.18.48.74.74,0,0,0,.08.34.86.86,0,0,0,.2.26,1.11,1.11,0,0,0,.3.17,1.41,1.41,0,0,0,.35,0,1.73,1.73,0,0,0,.56-.09,1.25,1.25,0,0,0,.47-.25,1.46,1.46,0,0,0,.32-.42,1.35,1.35,0,0,0,.11-.55V3.63Z"/><path class="cls-1" d="M161.55,1.73v.72h0a1.23,1.23,0,0,1,.52-.61,1.5,1.5,0,0,1,.82-.23,2,2,0,0,1,.74.11,1.23,1.23,0,0,1,.47.32,1.22,1.22,0,0,1,.25.51,2.73,2.73,0,0,1,.08.67V5.91h-.52V3.3a2.67,2.67,0,0,0,0-.5,1.21,1.21,0,0,0-.17-.4,1,1,0,0,0-.33-.27,1.31,1.31,0,0,0-.52-.09,1.23,1.23,0,0,0-.55.11,1.17,1.17,0,0,0-.4.3,1.24,1.24,0,0,0-.26.45,1.75,1.75,0,0,0-.1.57V5.91H161V1.73Z"/><path class="cls-1" d="M165.91.12V3.75l2.32-2h.68l-1.78,1.55L169,5.91h-.64l-1.65-2.28-.83.69V5.91h-.51V.12Z"/><rect class="cls-2" x="54.15" y="14.19" width="14.87" height="6.76" rx="1.35"/><path class="cls-3" d="M109.9,23.65v0h0A11.84,11.84,0,0,0,98.07,11.83,11.68,11.68,0,0,0,93,13a1.36,1.36,0,0,0-1.34-1.15H87.6a1.34,1.34,0,0,0-1.35,1.35V35.82a1.35,1.35,0,0,0,1.35,1.35h4.05A1.36,1.36,0,0,0,93,35.82V23.65h0a5.07,5.07,0,1,1,10.13,0v12.2a1.35,1.35,0,0,0,1.35,1.35h4.06a1.34,1.34,0,0,0,1.35-1.35V23.65Z"/><path class="cls-4" d="M156.36,11.83A12.67,12.67,0,1,0,169,24.5,12.69,12.69,0,0,0,156.36,11.83Zm0,18.58a5.92,5.92,0,1,1,5.92-5.91A5.92,5.92,0,0,1,156.36,30.41Z"/><rect class="cls-5" x="74.42" y="11.83" width="6.76" height="25.34" rx="1.35"/><path class="cls-6" d="M139,11.83h-4.05a1.35,1.35,0,0,0-1.36,1.35v1.19a12.67,12.67,0,1,0,0,20.26v5.92a6.16,6.16,0,0,1-12.21,1.1,1.33,1.33,0,0,0-1.32-1.1h-4.1a1.34,1.34,0,0,0-1.34,1.5,12.91,12.91,0,0,0,25.73-1.5V13.18A1.34,1.34,0,0,0,139,11.83ZM126,30.41a5.92,5.92,0,1,1,5.91-5.91A5.92,5.92,0,0,1,126,30.41Z"/><path class="cls-2" d="M64.28,0H45.39A1.34,1.34,0,0,0,44,1.35l0,34.47a1.35,1.35,0,0,0,1.35,1.35h4.06a1.36,1.36,0,0,0,1.35-1.35V6.76H71A6.76,6.76,0,0,0,64.28,0Z"/><circle class="cls-5" cx="37.23" cy="33.66" r="3.38"/><path class="cls-5" d="M79,.83a1.35,1.35,0,0,0-2.34,0L74.49,4.57a1.36,1.36,0,0,0,1.18,2H80a1.35,1.35,0,0,0,1.17-2Z"/><path class="cls-5" d="M15.33,6.73A15.22,15.22,0,1,0,28.06,30.12,1.35,1.35,0,0,0,26.93,28H21.61a1.36,1.36,0,0,0-.89.34A8.45,8.45,0,0,1,7.2,24.65H29a1.36,1.36,0,0,0,1.35-1.23,16,16,0,0,0,.07-1.7A15.27,15.27,0,0,0,15.33,6.73ZM7.2,19.24a8.46,8.46,0,0,1,16,0Z"/></g></g></svg>