<svg xmlns="http://www.w3.org/2000/svg" viewBox="0 0 152.06 31.18"><defs><style>.cls-1{fill:#009d95;}.cls-2{fill:#fff;}.cls-3{fill:#00a28d;}</style></defs><g id="圖層_2" data-name="圖層 2"><g id="表頭尾"><path class="cls-1" d="M138,7.81a25.38,25.38,0,0,1-5.88,5.64l-1.54-3.18a20.14,20.14,0,0,0,4.63-4.37c.92.63,1.84,1.28,2.79,1.91"/><rect class="cls-1" x="139.1" y="6.46" width="12.07" height="3.25"/><path class="cls-1" d="M152.06,13.19v3.15h-3.21l-.07,9A2.41,2.41,0,0,1,147.47,27c-1.48.62-3.35.39-5,.39l-1.28-3.28,3.94-.07a.79.79,0,0,0,.36-.42l0-7.22L138,16.31c0-.79,0-1.61-.07-2.33a14.93,14.93,0,0,1-1.08,1.64V27.56h-3.29c0-2.59,0-5.22,0-7.81-.56.43-1.08.95-1.6,1.41l-1.48-3.54a20.76,20.76,0,0,0,5.22-6.14L138,13.16Z"/><path class="cls-1" d="M122.17,23.28c-.26.07-.13-.23-.36-.23-.07-.23-.29-.29-.45-.46s-.34-.22-.3-.55c.09,0,0-.33.23-.2v-.1a6.45,6.45,0,0,0,.75-.49c.07-.1.23-.1.27-.23s.09,0,.16,0v-.07c0-.07.13,0,.16,0v-.09c0-.07.1,0,.13,0v-.07c0-.07.13,0,.17,0v-.1c.06-.07.13,0,.19,0v-.1s.07,0,.1,0v-.06c0-.07.1,0,.14,0V20c-.27-.06-.14-.46-.43-.52-.1,0,0-.2-.13-.13-.14-.13-.1-.33-.27-.4s-.1-.26-.19-.32-.13-.33-.3-.37a1.21,1.21,0,0,0-.49-.68c-.06.06-.1.16-.23.13s0,.09,0,.09c-.4.17-.66.63-1.09.79-.13.2-.36.26-.55.4s-.27-.17-.37-.27c-.06-.42-.42-1,0-1.31h3.28V6.25h-10.4l-.06,3.35a9.51,9.51,0,0,1-3.41-3.74h-2.93a15.72,15.72,0,0,1-4.06,4.82c.36,1.15.75,2.36,1.21,3.51l.85-.52c.17.16.07.49.1.72l1.67,0c0,.27,0,.56,0,.82h-3.28v2.89l3.31.07,0,5.28-.59.26-2.79.23.17,3.28c2.82-.39,5.61-.92,8.33-1.51.53.23.23,1,.33,1.44a1.38,1.38,0,0,0,.92,0c.49.07.62-.29,1.11-.16.14-.26.62,0,.79-.19a13.63,13.63,0,0,0,1.8-.37,5.08,5.08,0,0,0,1.12-.26c.36-.1.89,0,1.15-.29v-2.1l.16-.1a.58.58,0,0,1,.33.49c.2.07.23.33.43.43s0,.23.13.16c0,.33.39.23.39.56.3.06.3.43.56.49.1.26.33.33.49.49s.37.2.37.46a2.54,2.54,0,0,1,.65.46c.23,0,.13.07.36,0a4.61,4.61,0,0,0,.4-.69c.13-.1.19-.29.32-.36s.17-.2.17-.36c.16,0,.16-.2.23-.29a4.58,4.58,0,0,0,.46-.73c.13,0,.13-.16.23-.29v-.2a5.23,5.23,0,0,1-1.32-1m-15-13.58a5.79,5.79,0,0,1,1.41,1.7l-2.56,0a11.39,11.39,0,0,1,1.15-1.74m4.89,14.14h-.72c0-.43,0-.85,0-1.25-.13,0-.16-.13-.19-.19.32-1.09.45-2.2.68-3.28a16.37,16.37,0,0,0-2.39-.59l-.69,3.34.07.17,1.83.42a8.38,8.38,0,0,1-2.13.43V18.2h3.05l0-3-3-.06v-.73c.68-.06,1.41,0,2.13,0a8.36,8.36,0,0,0,.07-1.24c.16-.17.32.13.49.13.35-.46.52-1.06.82-1.51Zm3.35-14.21.16-.13h3.54c.16.26.07.69.1,1.05l-.1.07h-3.54c-.33-.13-.1-.66-.16-1m-.17,13.65V17.61c.2-.17.89-.3.82.22a19.31,19.31,0,0,0,1.34,4.9,9.51,9.51,0,0,1-2.16.55m.26-8.73a1.79,1.79,0,0,1,0-1.08h3.61c.23.23.1.69.13,1a35.15,35.15,0,0,1-3.71.06"/><path class="cls-1" d="M102.88,23.35c.53-.1,1.05-.23,1.57-.33.2-.1.53-.07.6-.26,0-1.35-.3-2.63-.36-3.88-.33-.22-.73,0-1.09,0s-.89.23-1.34.33l.22,4.1.11.06c.12,0,.26.07.29-.06"/><path class="cls-1" d="M30.49,9.87a15.65,15.65,0,0,1-4.08,17.24,16.05,16.05,0,0,1-15.68,3.27A15.57,15.57,0,0,1,8.25,1.84,16.22,16.22,0,0,1,25,2.88a15.91,15.91,0,0,1,5.52,7"/><path class="cls-2" d="M15,7.26c.56-.16,1.27-.59,1.83-.16.39.59,1.47.78,1.17,1.6a11.55,11.55,0,0,0,1.9,2c.16,0,.22-.07.29-.17L20,10.43c.22-.2.78.13,1.14-.07a.93.93,0,0,1,.72.29,4.86,4.86,0,0,0,.42.86l.13-.07a7.91,7.91,0,0,0,.42.82c1.18.39,1.74,1.79,2.78,2.38a17.33,17.33,0,0,0,4.12,2.45c-.07.19.16.19.26.26v0a1,1,0,0,0-.66-.13c.2.29.69.16.79.49h-.52c0,.1.13.1.19.13-.26-.1-.52.1-.69-.23a23,23,0,0,1-3-1.69l0,0a13.55,13.55,0,0,0,2.65,1.73c.29.16.71.26.88.55-.1,0-.27,0-.3.17l-.23-.13c-.06,0,0,.09,0,.13l.16.13a14.36,14.36,0,0,1-3.36-2c-.49-.33-1-.59-1.47-1-.06,0-.16,0-.2.07.56.42,1.15.68,1.7,1.07a9.4,9.4,0,0,1-3-2.18c-.35-.36-.88-1.11-1.5-1-.22.14-.58.1-.84.23s-.37-.23-.56-.06c-.16.36-.68.06-.78.46-.33.13-.92,0-1,.42l0,.16c-.66.3-1.54.2-2,.82-.14.13-.4,0-.53.13,0-.06,0-.13-.09-.13s-.27.1-.4.13c-.1-.16.13-.2.1-.29-.29-.13-.42.26-.65.39,0-.26.33-.3.42-.52-.16-.1-.29.06-.42.09.06,0,.2-.25,0-.25.16-.27.52-.17.62-.46H15l.78-.62c-.1,0-.29-.27-.46,0,0,0,.07-.06,0-.09s-.3.09-.46.09c0,0,0-.09-.06-.13h-.1c.1-.06.23-.23.35-.33L15,13.56c.49-.29,1-.62,1.47-.85l.1-.1a.35.35,0,0,0-.53,0c.43,0,0-.49.46-.55a1.3,1.3,0,0,1,.65-.78c-.42-.4-.58-1.12-1.07-1.34,0-.3-.33,0-.36-.3-.59,0-1.28.26-1.67-.26a2.48,2.48,0,0,0-1,0,3.09,3.09,0,0,0-.52.81A3.38,3.38,0,0,0,12,11a2.66,2.66,0,0,1-1.17,1V12c-.36.49-1.14.3-1.6.82l0-.13a.26.26,0,0,0-.33.19v.07c-.23-.07-.39.19-.49.32-.56.59-1.47.59-2.06,1.08-.06,0,0,0,0,0-1.08.23-1.6,1-2.32,1.83a4.43,4.43,0,0,1-.78.78c.07.26-.33.36-.46.49.13-.23.43-.42.46-.68-.26.13-.33.42-.62.55-.16-.13.16-.23.06-.36l-.39.3.36-.49c-.19,0-.39.36-.62.39-.06.1-.16.1-.29.1v0a4.87,4.87,0,0,0,.55-.52c-.23-.13-.49.16-.65.13s0-.2-.19-.13a1,1,0,0,0,.39-.42c-.13,0-.3.06-.43.13,0-.17.36-.27.26-.53-.42-.06-.36.36-.71.46.35-.49.88-.78,1.23-1.3l0,0a9.47,9.47,0,0,1,2.39-1.7c.68-.39,1.59-.58,2.09-1.24a5.06,5.06,0,0,0,.52-.75c.1,0,.13-.06.16-.13a3.1,3.1,0,0,1,1.6-.49c.26-.26.75-.1,1-.46.68-.81.95-1.82,1.53-2.64.2-.26.43-.69.82-.78A15.48,15.48,0,0,1,15,7.26"/><polygon class="cls-2" points="22.29 11.14 22.16 10.72 22.29 11.08 22.29 11.14"/><path class="cls-2" d="M22.52,11.8c-.13,0-.1-.13-.16-.23a.41.41,0,0,1,.16.23"/><path class="cls-3" d="M6.94,12c-.09-.19.17-.25.27-.42a.72.72,0,0,1-.27.42"/><polygon class="cls-3" points="10.08 12.09 10.08 12.06 10.18 12.06 10.08 12.09"/><path class="cls-3" d="M9.39,12.29c-.06.06-.09.16-.19.13s.13-.2.19-.13"/><path class="cls-2" d="M15.66,12.84c-.16.13-.49.23-.52.43-.29,0-.49.26-.72.26,0-.26.43-.1.46-.36l.26-.2,0,.1c.1-.1.43,0,.33-.29Z"/><path class="cls-2" d="M14.62,13a.52.52,0,0,1-.36.26c.06-.16.19-.16.36-.26"/><path class="cls-3" d="M7.89,13.43c.07.1-.06,0-.1.07s.07-.07.1-.07"/><rect class="cls-2" x="15.24" y="13.59" width="0.1" height="0.1"/><path class="cls-2" d="M15.11,13.82c0,.07-.07.07-.1.13h-.1c0-.1.07-.13.13-.16s0,0,.07,0"/><path class="cls-2" d="M15.73,14.44c0,.13-.2.13-.26.16s0-.06,0-.13.13-.06.23,0"/><path class="cls-3" d="M15.79,14.64c0,.13-.26.13-.39.23,0-.13.16-.2.26-.26s.13,0,.13,0"/><path class="cls-3" d="M23.63,15c.13.06.2.22.3.32l-.1.1a2.52,2.52,0,0,1-.5-.75c.1.1.17.26.3.33"/><path class="cls-2" d="M28.33,16.7c-.1.06-.23-.07-.32-.1Z"/><path class="cls-2" d="M29.25,17.19c-.27-.17-.62-.17-.82-.36a1.74,1.74,0,0,1,.82.36"/><polygon class="cls-2" points="26.38 17.15 25.98 16.86 26.24 16.99 26.38 17.15"/><polygon class="cls-2" points="29.15 18.13 29.18 18.07 29.28 18.13 29.15 18.13"/><path class="cls-2" d="M29,18.3h-.13v-.07s.09,0,.13.07"/><polygon class="cls-1" points="85.78 22.39 90.54 22.39 90.54 8.54 93.95 8.54 93.95 26.99 90.54 26.99 90.54 25.75 77.43 25.71 77.4 26.9 73.89 26.9 73.89 8.38 77.4 8.38 77.4 22.39 82.23 22.36 82.23 5.36 85.78 5.36 85.78 22.39"/><polygon class="cls-1" points="64.56 9.19 56.81 9.21 56.75 9.27 56.75 13.99 64.04 14.06 64.04 17.4 56.72 17.4 56.68 23.35 65.51 23.38 65.51 26.8 44.34 26.8 44.34 23.41 53.14 23.38 53.14 17.44 45.91 17.4 45.91 14.03 53.14 14.03 53.14 9.18 45.42 9.1 45.42 5.75 64.56 5.75 64.56 9.19"/><path class="cls-1" d="M62.4,19.28A2.25,2.25,0,0,1,62.66,21a2.13,2.13,0,0,1-1.38,1.43A2.16,2.16,0,0,1,59,21.74a2.09,2.09,0,0,1-.47-1.55A2.13,2.13,0,0,1,60,18.42a2.11,2.11,0,0,1,2.4.86"/></g></g></svg>