<svg xmlns="http://www.w3.org/2000/svg" viewBox="0 0 106.74 33.76"><defs><style>.cls-1{fill:#54565a;}.cls-2{fill:#00a4ef;}.cls-3{fill:#ffc517;}.cls-4{fill:#ed4848;}.cls-5{fill:#00c08b;}.cls-6{fill:#f90;}</style></defs><g id="圖層_2" data-name="圖層 2"><g id="表頭尾"><path class="cls-1" d="M73,.08V1.59h0a1,1,0,0,1,.15-.25,1,1,0,0,1,.22-.18.85.85,0,0,1,.26-.11,1.55,1.55,0,0,1,.29,0,1.12,1.12,0,0,1,.53.12,1.07,1.07,0,0,1,.37.3,1.35,1.35,0,0,1,.22.45,1.83,1.83,0,0,1,.07.53A1.9,1.9,0,0,1,75,3a1.3,1.3,0,0,1-.22.44,1.07,1.07,0,0,1-.37.3,1.12,1.12,0,0,1-.53.11,1.07,1.07,0,0,1-.57-.14A.82.82,0,0,1,73,3.23h0v.5h-.3V.08ZM74.73,2a1.17,1.17,0,0,0-.16-.36.88.88,0,0,0-.26-.25.74.74,0,0,0-.4-.1.83.83,0,0,0-.43.1.88.88,0,0,0-.29.25A1.46,1.46,0,0,0,73,2a2,2,0,0,0,0,.41,1.92,1.92,0,0,0,0,.41,1.46,1.46,0,0,0,.16.36.91.91,0,0,0,.29.26.83.83,0,0,0,.43.1.74.74,0,0,0,.4-.1.92.92,0,0,0,.26-.26,1.17,1.17,0,0,0,.16-.36,1.92,1.92,0,0,0,0-.41A2,2,0,0,0,74.73,2Z"/><path class="cls-1" d="M75.65,1.09l.87,2.25.81-2.25h.32l-1.14,3a1.45,1.45,0,0,1-.14.28.83.83,0,0,1-.13.18.51.51,0,0,1-.18.09.85.85,0,0,1-.25,0h-.15l-.09,0V4.41l.11,0h.11a.4.4,0,0,0,.17,0,.25.25,0,0,0,.12-.08.38.38,0,0,0,.09-.13L76.25,4l.11-.3L75.3,1.09Z"/><path class="cls-1" d="M82,.08V.37H79.81V1.7h2V2h-2V3.44H82v.29H79.46V.08Z"/><path class="cls-1" d="M82.62,3.19h.43v.54h-.43Z"/><path class="cls-1" d="M84.17,3a.68.68,0,0,0,.25.3,1,1,0,0,0,.38.16,1.83,1.83,0,0,0,.47,0,1.27,1.27,0,0,0,.32,0,1.2,1.2,0,0,0,.31-.13.76.76,0,0,0,.24-.23.55.55,0,0,0,.1-.34.5.5,0,0,0-.07-.27A.64.64,0,0,0,86,2.31a.9.9,0,0,0-.24-.12l-.26-.08-.81-.2-.31-.1a.83.83,0,0,1-.27-.17A.79.79,0,0,1,83.85,1,1.32,1.32,0,0,1,83.9.72a1,1,0,0,1,.19-.34,1.13,1.13,0,0,1,.39-.27A1.58,1.58,0,0,1,85.11,0a1.81,1.81,0,0,1,.52.07,1.35,1.35,0,0,1,.43.22,1,1,0,0,1,.29.35,1,1,0,0,1,.11.5h-.35A.72.72,0,0,0,86,.77.92.92,0,0,0,85.8.51,1.06,1.06,0,0,0,85.12.3a1.34,1.34,0,0,0-.35,0,.69.69,0,0,0-.29.12.53.53,0,0,0-.2.22A.61.61,0,0,0,84.2,1a.56.56,0,0,0,0,.23.61.61,0,0,0,.12.16.78.78,0,0,0,.18.11l.21.06.89.22.37.13a1.49,1.49,0,0,1,.3.18.9.9,0,0,1,.21.27.94.94,0,0,1,.07.39,1,1,0,0,1-.07.38,2,2,0,0,1-.14.23.75.75,0,0,1-.25.21,1.21,1.21,0,0,1-.38.16,2.33,2.33,0,0,1-.56,0,2.35,2.35,0,0,1-.6-.07,1.22,1.22,0,0,1-.47-.23,1,1,0,0,1-.3-.39,1.29,1.29,0,0,1-.09-.58h.35A1.09,1.09,0,0,0,84.17,3Z"/><path class="cls-1" d="M87.46.08V2.34a1.73,1.73,0,0,0,.07.54.9.9,0,0,0,.21.36.7.7,0,0,0,.34.21,1.72,1.72,0,0,0,.9,0,.75.75,0,0,0,.34-.21.9.9,0,0,0,.21-.36,1.73,1.73,0,0,0,.07-.54V.08H90V2.42a1.89,1.89,0,0,1-.08.53,1.24,1.24,0,0,1-.25.45,1.25,1.25,0,0,1-.44.29,1.61,1.61,0,0,1-.65.11,1.58,1.58,0,0,1-.65-.11,1.17,1.17,0,0,1-.44-.29A1.11,1.11,0,0,1,87.19,3a1.59,1.59,0,0,1-.08-.53V.08Z"/><path class="cls-1" d="M91,.08l2.13,3.09h0V.08h.34V3.73h-.39L91,.64h0V3.73h-.34V.08Z"/><path class="cls-1" d="M97.23.08a2.12,2.12,0,0,1,.44,0A1,1,0,0,1,98,.27a.7.7,0,0,1,.26.28.77.77,0,0,1,.1.42.87.87,0,0,1-.05.28.85.85,0,0,1-.13.25.7.7,0,0,1-.2.18.56.56,0,0,1-.26.11h0a.86.86,0,0,1,.78.89,1.5,1.5,0,0,1,0,.2,1.12,1.12,0,0,1-.06.23.85.85,0,0,1-.13.22.8.8,0,0,1-.24.2,1.27,1.27,0,0,1-.35.14,2,2,0,0,1-.51,0H95.68V.08Zm0,1.6a1.25,1.25,0,0,0,.36-.05.9.9,0,0,0,.26-.13A.59.59,0,0,0,98,1.3a.6.6,0,0,0,0-.24c0-.46-.27-.69-.82-.69H96V1.68Zm0,1.76a1.37,1.37,0,0,0,.36,0,.77.77,0,0,0,.31-.12.58.58,0,0,0,.21-.23.81.81,0,0,0,.08-.37.61.61,0,0,0-.25-.53A1.26,1.26,0,0,0,97.23,2H96V3.44Z"/><path class="cls-1" d="M99.1,1.5a1,1,0,0,1,.22-.28,1,1,0,0,1,.33-.15,1.42,1.42,0,0,1,.42-.06,2,2,0,0,1,.35,0,.77.77,0,0,1,.31.12.65.65,0,0,1,.23.26.91.91,0,0,1,.09.43V3.27a.17.17,0,0,0,.19.19l.1,0v.27l-.1,0h-.11a.56.56,0,0,1-.2,0,.2.2,0,0,1-.11-.09.39.39,0,0,1-.06-.15,1.15,1.15,0,0,1,0-.19h0a2.31,2.31,0,0,1-.18.23.82.82,0,0,1-.45.27,1.55,1.55,0,0,1-.33,0,1.29,1.29,0,0,1-.35,0,.67.67,0,0,1-.28-.14A.65.65,0,0,1,99,3.38.71.71,0,0,1,98.89,3,.72.72,0,0,1,99,2.6a.79.79,0,0,1,.33-.23,1.57,1.57,0,0,1,.45-.12l.52-.06.18,0,.13-.05A.31.31,0,0,0,100.7,2a.72.72,0,0,0,0-.17.54.54,0,0,0,0-.27.5.5,0,0,0-.15-.17.53.53,0,0,0-.22-.08,1.14,1.14,0,0,0-.27,0,.8.8,0,0,0-.5.14.55.55,0,0,0-.2.47H99A1.17,1.17,0,0,1,99.1,1.5Zm1.61.79a.19.19,0,0,1-.11.08l-.16,0-.42.06a2.15,2.15,0,0,0-.4.09.68.68,0,0,0-.29.16.38.38,0,0,0-.12.3.46.46,0,0,0,.05.21.55.55,0,0,0,.13.17.69.69,0,0,0,.19.1.57.57,0,0,0,.22,0,1.13,1.13,0,0,0,.36-.06.9.9,0,0,0,.29-.16.86.86,0,0,0,.2-.26.81.81,0,0,0,.07-.35V2.29Z"/><path class="cls-1" d="M102,1.09v.46h0a.78.78,0,0,1,.33-.39.92.92,0,0,1,.51-.15,1.28,1.28,0,0,1,.47.08.69.69,0,0,1,.3.2.74.74,0,0,1,.16.32,1.82,1.82,0,0,1,0,.42v1.7h-.32V2.08a1.55,1.55,0,0,0,0-.31.64.64,0,0,0-.11-.25.44.44,0,0,0-.21-.17.73.73,0,0,0-.32-.06,1,1,0,0,0-.35.06.79.79,0,0,0-.25.19.92.92,0,0,0-.17.29,1,1,0,0,0-.06.36V3.73h-.32V1.09Z"/><path class="cls-1" d="M104.76.08V2.37l1.47-1.28h.43l-1.13,1,1.21,1.66h-.41l-1-1.44-.53.44v1h-.32V.08Z"/><rect class="cls-2" x="34.19" y="8.96" width="9.39" height="4.27" rx="0.85"/><path class="cls-3" d="M69.4,14.93v0h0A7.48,7.48,0,0,0,58.72,8.19a.85.85,0,0,0-.85-.72H55.31a.85.85,0,0,0-.85.85v14.3a.85.85,0,0,0,.85.85h2.56a.85.85,0,0,0,.86-.85V14.94h0a3.2,3.2,0,0,1,6.4,0v7.71a.85.85,0,0,0,.85.85h2.56a.86.86,0,0,0,.86-.85v-7.7h0Z"/><path class="cls-4" d="M98.73,7.47a8,8,0,1,0,8,8A8,8,0,0,0,98.73,7.47Zm0,11.73a3.73,3.73,0,1,1,3.74-3.73A3.74,3.74,0,0,1,98.73,19.2Z"/><rect class="cls-5" x="46.99" y="7.47" width="4.27" height="16" rx="0.85"/><path class="cls-6" d="M87.75,7.47H85.19a.85.85,0,0,0-.86.85v.75a8,8,0,1,0,0,12.8V25.6a3.89,3.89,0,0,1-7.71.7.86.86,0,0,0-.84-.7H73.2a.86.86,0,0,0-.85,1,8.15,8.15,0,0,0,16.25-1V8.32A.85.85,0,0,0,87.75,7.47ZM79.53,19.2a3.73,3.73,0,1,1,3.74-3.73A3.73,3.73,0,0,1,79.53,19.2Z"/><path class="cls-2" d="M40.59,0H28.66a.85.85,0,0,0-.85.85l0,21.77a.85.85,0,0,0,.85.85H31.2a.86.86,0,0,0,.86-.85V4.27h12.8A4.27,4.27,0,0,0,40.59,0Z"/><circle class="cls-5" cx="23.51" cy="21.26" r="2.13"/><path class="cls-5" d="M49.88.53a.85.85,0,0,0-1.48,0L47,2.89a.85.85,0,0,0,.74,1.28h2.73a.86.86,0,0,0,.74-1.28Z"/><path class="cls-5" d="M9.68,4.25a9.61,9.61,0,1,0,8,14.77A.86.86,0,0,0,17,17.7H13.65a.91.91,0,0,0-.57.21,5.33,5.33,0,0,1-8.53-2.35H18.33a.86.86,0,0,0,.85-.77c0-.35,0-.71,0-1.08A9.63,9.63,0,0,0,9.68,4.25Zm-5.13,7.9a5.34,5.34,0,0,1,10.12,0Z"/></g></g></svg>