<svg xmlns="http://www.w3.org/2000/svg" xmlns:xlink="http://www.w3.org/1999/xlink" viewBox="0 0 86.71 70.14"><defs><style>.cls-1{fill:none;}.cls-2{clip-path:url(#clip-path);}.cls-3{fill:#a1d6cc;}.cls-14,.cls-4{fill:#fff;}.cls-4{opacity:0.2;}.cls-5{fill:#ffe4cc;}.cls-6{fill:#fccdc5;}.cls-7{fill:#eaa494;}.cls-8{fill:#4c1e18;}.cls-9{fill:#00a38d;}.cls-10{fill:#feffee;}.cls-11{fill:#340910;}.cls-12{fill:#00755f;}.cls-13{fill:#ffb89a;}.cls-15{fill:#00dfb4;}</style><clipPath id="clip-path" transform="translate(8.81)"><path class="cls-1" d="M68.81,34.41A34.41,34.41,0,1,1,34.41,0,34.4,34.4,0,0,1,68.81,34.41Z"/></clipPath></defs><g id="圖層_2" data-name="圖層 2"><g id="圖層_1-2" data-name="圖層 1"><g class="cls-2"><rect class="cls-3" x="8.81" width="68.81" height="68.81"/><polygon class="cls-4" points="12.39 0 15.48 5.74 18.58 11.47 12.39 11.47 6.19 11.47 9.29 5.74 12.39 0"/><polygon class="cls-4" points="24.77 0 27.87 5.74 30.97 11.47 24.77 11.47 18.58 11.47 21.68 5.74 24.77 0"/><polygon class="cls-4" points="37.16 0 40.26 5.74 43.35 11.47 37.16 11.47 30.97 11.47 34.06 5.74 37.16 0"/><polygon class="cls-4" points="49.55 0 52.64 5.74 55.74 11.47 49.55 11.47 43.35 11.47 46.45 5.74 49.55 0"/><polygon class="cls-4" points="61.93 0 65.03 5.74 68.13 11.47 61.93 11.47 55.74 11.47 58.84 5.74 61.93 0"/><polygon class="cls-4" points="74.32 0 77.42 5.74 80.51 11.47 74.32 11.47 68.13 11.47 71.22 5.74 74.32 0"/><polygon class="cls-4" points="18.58 11.47 21.68 17.2 24.77 22.94 18.58 22.94 12.39 22.94 15.48 17.2 18.58 11.47"/><polygon class="cls-4" points="6.19 11.47 9.29 17.2 12.39 22.94 6.19 22.94 0 22.94 3.1 17.2 6.19 11.47"/><polygon class="cls-4" points="30.97 11.47 34.06 17.2 37.16 22.94 30.97 22.94 24.77 22.94 27.87 17.2 30.97 11.47"/><polygon class="cls-4" points="43.35 11.47 46.45 17.2 49.55 22.94 43.35 22.94 37.16 22.94 40.26 17.2 43.35 11.47"/><polygon class="cls-4" points="55.74 11.47 58.84 17.2 61.93 22.94 55.74 22.94 49.55 22.94 52.64 17.2 55.74 11.47"/><polygon class="cls-4" points="68.13 11.47 71.22 17.2 74.32 22.94 68.13 22.94 61.93 22.94 65.03 17.2 68.13 11.47"/><polygon class="cls-4" points="80.51 11.47 83.61 17.2 86.7 22.94 80.51 22.94 74.32 22.94 77.42 17.2 80.51 11.47"/><polygon class="cls-4" points="12.39 22.94 15.48 28.67 18.58 34.41 12.39 34.41 6.19 34.41 9.29 28.67 12.39 22.94"/><polygon class="cls-4" points="24.77 22.94 27.87 28.67 30.97 34.41 24.77 34.41 18.58 34.41 21.68 28.67 24.77 22.94"/><polygon class="cls-4" points="37.16 22.94 40.26 28.67 43.35 34.41 37.16 34.41 30.97 34.41 34.06 28.67 37.16 22.94"/><polygon class="cls-4" points="49.55 22.94 52.64 28.67 55.74 34.41 49.55 34.41 43.35 34.41 46.45 28.67 49.55 22.94"/><polygon class="cls-4" points="61.93 22.94 65.03 28.67 68.13 34.41 61.93 34.41 55.74 34.41 58.84 28.67 61.93 22.94"/><polygon class="cls-4" points="74.32 22.94 77.42 28.67 80.51 34.41 74.32 34.41 68.13 34.41 71.22 28.67 74.32 22.94"/><polygon class="cls-4" points="18.58 34.41 21.68 40.14 24.77 45.88 18.58 45.88 12.39 45.88 15.48 40.14 18.58 34.41"/><polygon class="cls-4" points="6.19 34.41 9.29 40.14 12.39 45.88 6.19 45.88 0 45.88 3.1 40.14 6.19 34.41"/><polygon class="cls-4" points="30.97 34.41 34.06 40.14 37.16 45.88 30.97 45.88 24.77 45.88 27.87 40.14 30.97 34.41"/><polygon class="cls-4" points="43.35 34.41 46.45 40.14 49.55 45.88 43.35 45.88 37.16 45.88 40.26 40.14 43.35 34.41"/><polygon class="cls-4" points="55.74 34.41 58.84 40.14 61.93 45.88 55.74 45.88 49.55 45.88 52.64 40.14 55.74 34.41"/><polygon class="cls-4" points="68.13 34.41 71.22 40.14 74.32 45.88 68.13 45.88 61.93 45.88 65.03 40.14 68.13 34.41"/><polygon class="cls-4" points="80.51 34.41 83.61 40.14 86.7 45.88 80.51 45.88 74.32 45.88 77.42 40.14 80.51 34.41"/><polygon class="cls-4" points="12.39 45.88 15.48 51.61 18.58 57.34 12.39 57.34 6.19 57.34 9.29 51.61 12.39 45.88"/><polygon class="cls-4" points="24.77 45.88 27.87 51.61 30.97 57.34 24.77 57.34 18.58 57.34 21.68 51.61 24.77 45.88"/><polygon class="cls-4" points="37.16 45.88 40.26 51.61 43.35 57.34 37.16 57.34 30.97 57.34 34.06 51.61 37.16 45.88"/><polygon class="cls-4" points="49.55 45.88 52.64 51.61 55.74 57.34 49.55 57.34 43.35 57.34 46.45 51.61 49.55 45.88"/><polygon class="cls-4" points="61.93 45.88 65.03 51.61 68.13 57.34 61.93 57.34 55.74 57.34 58.84 51.61 61.93 45.88"/><polygon class="cls-4" points="74.32 45.88 77.42 51.61 80.51 57.34 74.32 57.34 68.13 57.34 71.22 51.61 74.32 45.88"/><polygon class="cls-4" points="18.58 57.34 21.68 63.08 24.77 68.81 18.58 68.81 12.39 68.81 15.48 63.08 18.58 57.34"/><polygon class="cls-4" points="6.19 57.34 9.29 63.08 12.39 68.81 6.19 68.81 0 68.81 3.1 63.08 6.19 57.34"/><polygon class="cls-4" points="30.97 57.34 34.06 63.08 37.16 68.81 30.97 68.81 24.77 68.81 27.87 63.08 30.97 57.34"/><polygon class="cls-4" points="43.35 57.34 46.45 63.08 49.55 68.81 43.35 68.81 37.16 68.81 40.26 63.08 43.35 57.34"/><polygon class="cls-4" points="55.74 57.34 58.84 63.08 61.93 68.81 55.74 68.81 49.55 68.81 52.64 63.08 55.74 57.34"/><polygon class="cls-4" points="68.13 57.34 71.22 63.08 74.32 68.81 68.13 68.81 61.93 68.81 65.03 63.08 68.13 57.34"/><polygon class="cls-4" points="80.51 57.64 83.61 63.38 86.7 69.11 80.51 69.11 74.32 69.11 77.42 63.38 80.51 57.64"/><path class="cls-5" d="M46.72,24.61v-.07c-4,.61-7.21-1.9-8.4-3a11.91,11.91,0,0,0-.43,2.94.51.51,0,0,1-.31.46.54.54,0,0,1-.21,0,.58.58,0,0,1-.35-.13,8.12,8.12,0,0,1-2.69-5.16.32.32,0,0,1-.09,0C29,20,24.07,23,21.71,24.61c0,.32,0,.64-.06,1-.39,6.56-1.11,18.75,12.56,20.74C48.4,44.28,47.31,31.49,46.72,24.61Zm-2.75,6-1,.46s0,.09,0,.13a2,2,0,1,1-2-2,2,2,0,0,1,1.75,1l.77-.36a.44.44,0,0,1,.61.16A.43.43,0,0,1,44,30.61ZM38.31,26a9.42,9.42,0,0,1,6.13.4c.52.21.29,1.07-.24.85a8.7,8.7,0,0,0-5.65-.4A.44.44,0,0,1,38.31,26ZM33.67,33.7a.52.52,0,0,1,.52-.52.52.52,0,0,1,.53.52v1.92a.52.52,0,0,1-.53.52.52.52,0,0,1-.52-.52ZM24.07,26a9.48,9.48,0,0,1,6.13-.4.45.45,0,0,1-.24.86,8.64,8.64,0,0,0-5.65.4C23.78,27.08,23.55,26.21,24.07,26Zm3.4,7.2a2,2,0,0,1-2-2v-.13l-1-.46a.44.44,0,1,1,.45-.76l.78.36a2,2,0,1,1,1.74,3Zm3.06,5.69a8.89,8.89,0,0,0,7.46.35c.53-.21.76.65.24.86a9.78,9.78,0,0,1-8.14-.44C29.57,39.39,30,38.63,30.53,38.89Z" transform="translate(8.81)"/><path class="cls-6" d="M39.8,37.7a2.32,2.32,0,1,0,2.31-2.32A2.31,2.31,0,0,0,39.8,37.7Z" transform="translate(8.81)"/><path class="cls-6" d="M26.36,35.38a2.32,2.32,0,1,0,2.32,2.32A2.32,2.32,0,0,0,26.36,35.38Z" transform="translate(8.81)"/><path class="cls-7" d="M31.36,39.87s2.17,4.47,5.27.38A9.25,9.25,0,0,1,31.36,39.87Z" transform="translate(8.81)"/><path class="cls-7" d="M31.36,39.43s3.06-1.55,5.29.34C36.65,39.77,34.5,41.22,31.36,39.43Z" transform="translate(8.81)"/><path class="cls-8" d="M34.24,18.69a12.63,12.63,0,0,1,.67-4.45.53.53,0,0,1,1,.38c0,.05-1.91,5.07,1,8.63a5.36,5.36,0,0,1,.94-3,.53.53,0,0,1,.74.05c.19.21,4.58,5.09,10.08,2.52a.53.53,0,0,1,.7.25.53.53,0,0,1-.26.7,8.75,8.75,0,0,1-1.37.5l0,.21c.12,1.43.27,3.18.29,5.07a3.7,3.7,0,0,1,1.81-.47.06.06,0,0,0,0,0,15.93,15.93,0,0,0-1.2-14.7,14.27,14.27,0,0,0-5.31-4.74c-6.73-3.45-19.45-1.35-23.72,5.6-2.49,4-2.41,9.81-1.22,13.89a3.58,3.58,0,0,1,2,.52c0-1.53.08-2.93.15-4.11a.66.66,0,0,0,0-.14c-.22.16-.35.27-.36.28a.51.51,0,0,1-.33.11.52.52,0,0,1-.33-.93c.28-.23,7-5.72,14.57-6.18Z" transform="translate(8.81)"/><path class="cls-5" d="M18.16,32.92a.53.53,0,0,1-.7-.25.52.52,0,0,1,.25-.7,3.79,3.79,0,0,1,2.82.14c0-.37,0-.73-.05-1.09a.58.58,0,0,1-.12-.1,2.45,2.45,0,0,0-2.07-.74,1.9,1.9,0,0,0-1.53.87,2.22,2.22,0,0,0,.32,2.85,3,3,0,0,0,3.67.23c0-.28-.08-.56-.11-.84A3.54,3.54,0,0,0,18.16,32.92Z" transform="translate(8.81)"/><path class="cls-5" d="M48,30.92h0c0,.39,0,.79-.05,1.19A3.86,3.86,0,0,1,50.85,32a.53.53,0,1,1-.45,1,3.56,3.56,0,0,0-2.52.39c0,.29-.07.59-.12.88a3,3,0,0,0,3.56-.29,2.22,2.22,0,0,0,.32-2.85,1.92,1.92,0,0,0-1.53-.87A2.44,2.44,0,0,0,48,30.92Z" transform="translate(8.81)"/><path class="cls-5" d="M34.3,47.39h-.18a20.25,20.25,0,0,1-4.16-1A4.87,4.87,0,0,1,29.7,48c.67.53,4.45,3.17,9.34-.23a5.23,5.23,0,0,1-.19-1.56A20.39,20.39,0,0,1,34.3,47.39Z" transform="translate(8.81)"/><path class="cls-9" d="M32.27,7.17a23.3,23.3,0,0,1,5.83-.08C37.1,4.49,32.79,4.92,32.27,7.17Z" transform="translate(8.81)"/><path class="cls-8" d="M38.1,7.09a20.22,20.22,0,0,1,2.55.45c-.8-2.13-1.85-3.42-3-3.75a3.38,3.38,0,0,0-2.82.76.52.52,0,0,1-.58.07,2.64,2.64,0,0,0-2.12,0,4.1,4.1,0,0,0-1.77,2.9c.65-.14,1.3-.24,2-.33C32.79,4.92,37.1,4.49,38.1,7.09Z" transform="translate(8.81)"/><path class="cls-8" d="M40.9,45.24c.18.6.91.95,2,1.39a3.9,3.9,0,0,1,2,1.38,6.66,6.66,0,0,0,2.46-5.66.55.55,0,0,1,.32-.48.52.52,0,0,1,.56.1,10,10,0,0,1,1.3,1.48c.78-3-1.39-6.66-2.07-7.68A13.74,13.74,0,0,1,40.9,45.24Z" transform="translate(8.81)"/><path class="cls-10" d="M34.38,66.39A19.9,19.9,0,0,0,42.22,52c-1.31,1.07-3.51,2.68-5,2.68a.49.49,0,0,1-.42-.21L34.3,51l-2.54,3.4a.49.49,0,0,1-.42.21c-1.39,0-3.45-1.46-4.77-2.53A19.89,19.89,0,0,0,34.38,66.39Z" transform="translate(8.81)"/><path class="cls-10" d="M33.4,50.48A8.67,8.67,0,0,1,29.22,49a5.21,5.21,0,0,1-2.52,1.92c1.2,1,3.19,2.52,4.4,2.71Z" transform="translate(8.81)"/><path class="cls-9" d="M43.3,51.27a21,21,0,0,1-8.59,16.18.54.54,0,0,1-.3.1h0a.54.54,0,0,1-.3-.1,21,21,0,0,1-8.59-16.16C18.76,53.41,17,54.91,15.73,69.1H21.4c0-2,.38-6.23.46-7L21,59.39a.53.53,0,0,1,1-.31l.87,2.83a.5.5,0,0,1,0,.21c0,.06-.51,4.92-.46,7H34.3l.11,0,.11,0H45.83c.05-2.06-.46-6.92-.46-7a.38.38,0,0,1,0-.21l.87-2.83a.53.53,0,0,1,.66-.35.53.53,0,0,1,.34.66l-.84,2.73c.08.75.5,5,.45,7h6.22C51.81,54.88,50,53.41,43.3,51.27Z" transform="translate(8.81)"/><path class="cls-10" d="M35.16,50.45l2.33,3.13c1.15-.19,3.12-1.61,4.47-2.77a5,5,0,0,1-2.49-2.05A10,10,0,0,1,35.16,50.45Z" transform="translate(8.81)"/><path class="cls-11" d="M30,26.46a.45.45,0,0,0,.24-.86,9.48,9.48,0,0,0-6.13.4c-.52.21-.29,1.08.24.86A8.64,8.64,0,0,1,30,26.46Z" transform="translate(8.81)"/><path class="cls-11" d="M38.55,26.82a8.7,8.7,0,0,1,5.65.4c.53.22.76-.64.24-.85a9.42,9.42,0,0,0-6.13-.4A.44.44,0,0,0,38.55,26.82Z" transform="translate(8.81)"/><path class="cls-11" d="M27.47,29.2a2,2,0,0,0-1.74,1L25,29.85a.44.44,0,1,0-.45.76l1,.46v.13a2,2,0,1,0,2-2Z" transform="translate(8.81)"/><path class="cls-11" d="M43.52,29.85l-.77.36a2,2,0,0,0-1.75-1,2,2,0,1,0,2,2s0-.09,0-.13l1-.46a.43.43,0,0,0,.16-.6A.44.44,0,0,0,43.52,29.85Z" transform="translate(8.81)"/><path class="cls-11" d="M34.19,36.14a.52.52,0,0,0,.53-.52V33.7a.52.52,0,0,0-.53-.52.52.52,0,0,0-.52.52v1.92A.52.52,0,0,0,34.19,36.14Z" transform="translate(8.81)"/><path class="cls-11" d="M38.23,40.1c.52-.21.29-1.07-.24-.86a8.89,8.89,0,0,1-7.46-.35c-.5-.26-1,.5-.44.77A9.78,9.78,0,0,0,38.23,40.1Z" transform="translate(8.81)"/><path class="cls-12" d="M25.52,50.64,23.34,57l2.42,3.39-1,2s7,5.26,9.56,5.14C34.3,67.52,27.15,62.21,25.52,50.64Z" transform="translate(8.81)"/><path class="cls-12" d="M43.22,50.64,45.4,57,43,60.43l1,2s-7,5.26-9.57,5.14C34.44,67.52,41.59,62.21,43.22,50.64Z" transform="translate(8.81)"/><path class="cls-11" d="M43,50.07c-3.76-1.16-3.06-4.19-3-4.32h0a4.19,4.19,0,0,0,2.49,1.86c1.37.57,1.64.81,1.48,1.26a.53.53,0,0,0,.17.6.51.51,0,0,0,.62,0,7.64,7.64,0,0,0,3.62-5.85,7.26,7.26,0,0,1,.83,1.26.54.54,0,0,0,.47.29h0a.52.52,0,0,0,.47-.29c1.72-3.4-.46-7.59-1.5-9.26a4.15,4.15,0,0,0,.79.08,3.81,3.81,0,0,0,2.64-1,3.26,3.26,0,0,0,.5-4.13,2.76,2.76,0,0,0-1.64-1.25,17,17,0,0,0-1.34-15.45A15.47,15.47,0,0,0,43.84,8.7a13.69,13.69,0,0,0-2-.79c-1-2.93-2.31-4.66-4-5.13a4.29,4.29,0,0,0-3.52.77,3.54,3.54,0,0,0-2.72.11c-1.22.61-2,2-2.44,4.11C24.48,9,20.71,11.5,18.74,14.69,16.11,19,16.16,25,17.39,29.31a2.75,2.75,0,0,0-1.54,1.22,3.26,3.26,0,0,0,.5,4.13,3.8,3.8,0,0,0,2.64,1,4.44,4.44,0,0,0,2-.47c.82,4.24,2.93,8.42,8,10.7.11.67.27,3.12-3.06,4.15h0C17.66,52.61,16,54.44,14.63,69.57a.56.56,0,0,0,.14.41.55.55,0,0,0,.38.16H34.3l.11,0,.11,0H53.66a.55.55,0,0,0,.39-.16.51.51,0,0,0,.13-.41C52.86,54.42,51.15,52.61,43,50.07Zm-1,.74c-1.35,1.16-3.32,2.58-4.47,2.77l-2.33-3.13a10,10,0,0,0,4.31-1.69A5,5,0,0,0,42,50.81Zm-2.92-3c-4.89,3.4-8.67.76-9.34.23A4.87,4.87,0,0,0,30,46.36a20.25,20.25,0,0,0,4.16,1h.18a20.39,20.39,0,0,0,4.55-1.17A5.23,5.23,0,0,0,39,47.78Zm10.5-4.33A10,10,0,0,0,48.24,42a.52.52,0,0,0-.56-.1.55.55,0,0,0-.32.48A6.66,6.66,0,0,1,44.9,48a3.9,3.9,0,0,0-2-1.38c-1.06-.44-1.79-.79-2-1.39a13.74,13.74,0,0,0,6.57-9.47C48.15,36.79,50.32,40.41,49.54,43.45Zm2.1-12.4a2.22,2.22,0,0,1-.32,2.85,3,3,0,0,1-3.56.29c.05-.29.08-.59.12-.88a3.56,3.56,0,0,1,2.52-.39.53.53,0,1,0,.45-1,3.86,3.86,0,0,0-2.87.15c0-.4,0-.8.05-1.19h0a2.44,2.44,0,0,1,2.07-.74A1.92,1.92,0,0,1,51.64,31.05ZM32.09,4.6a2.64,2.64,0,0,1,2.12,0,.52.52,0,0,0,.58-.07,3.38,3.38,0,0,1,2.82-.76c1.19.33,2.24,1.62,3,3.75a20.22,20.22,0,0,0-2.55-.45.05.05,0,0,1,0,0,.05.05,0,0,0,0,0,23.3,23.3,0,0,0-5.83.08.24.24,0,0,0,0,.08.24.24,0,0,1,0-.08c-.65.09-1.3.19-2,.33A4.1,4.1,0,0,1,32.09,4.6Zm-15,29.3a2.22,2.22,0,0,1-.32-2.85,1.9,1.9,0,0,1,1.53-.87,2.45,2.45,0,0,1,2.07.74.58.58,0,0,0,.12.1c0,.36,0,.72.05,1.09A3.79,3.79,0,0,0,17.71,32a.52.52,0,0,0-.25.7.53.53,0,0,0,.7.25,3.54,3.54,0,0,1,2.48.37c0,.28.07.56.11.84A3,3,0,0,1,17.08,33.9Zm2.51-9a.52.52,0,0,0,.33.93.51.51,0,0,0,.33-.11s.14-.12.36-.28a.66.66,0,0,1,0,.14c-.07,1.18-.15,2.58-.15,4.11a3.58,3.58,0,0,0-2-.52c-1.19-4.08-1.27-9.85,1.22-13.89,4.27-7,17-9,23.72-5.6a14.27,14.27,0,0,1,5.31,4.74,15.93,15.93,0,0,1,1.2,14.7.06.06,0,0,1,0,0,3.7,3.7,0,0,0-1.81.47c0-1.89-.17-3.64-.29-5.07l0-.21a8.75,8.75,0,0,0,1.37-.5.53.53,0,0,0,.26-.7.53.53,0,0,0-.7-.25c-5.5,2.57-9.89-2.31-10.08-2.52a.53.53,0,0,0-.74-.05,5.36,5.36,0,0,0-.94,3c-2.93-3.56-1-8.58-1-8.63a.53.53,0,0,0-1-.38,12.63,12.63,0,0,0-.67,4.45h-.08C26.63,19.14,19.87,24.63,19.59,24.86Zm2.06.74c0-.35,0-.67.06-1C24.07,23,29,20,34.23,19.73a.32.32,0,0,0,.09,0A8.12,8.12,0,0,0,37,24.86a.58.58,0,0,0,.35.13.54.54,0,0,0,.21,0,.51.51,0,0,0,.31-.46,11.91,11.91,0,0,1,.43-2.94c1.19,1.1,4.4,3.61,8.4,3v.07c.59,6.88,1.68,19.67-12.51,21.73C20.54,44.35,21.26,32.16,21.65,25.6ZM29.22,49a8.67,8.67,0,0,0,4.18,1.53l-2.3,3.1c-1.21-.19-3.2-1.7-4.4-2.71A5.21,5.21,0,0,0,29.22,49Zm2.12,5.7a.49.49,0,0,0,.42-.21L34.3,51l2.53,3.4a.49.49,0,0,0,.42.21c1.46,0,3.66-1.61,5-2.68a19.9,19.9,0,0,1-7.84,14.42,19.89,19.89,0,0,1-7.81-14.27C27.89,53.19,30,54.65,31.34,54.65ZM46.87,69.1c.05-2-.37-6.23-.45-7l.84-2.73a.53.53,0,0,0-.34-.66.53.53,0,0,0-.66.35l-.87,2.83a.38.38,0,0,0,0,.21c0,.06.51,4.92.46,7H34.52l-.11,0-.11,0H22.45c-.05-2.06.46-6.92.46-7a.5.5,0,0,0,0-.21L22,59.08a.53.53,0,0,0-1,.31l.85,2.73c-.08.75-.5,5-.46,7H15.73c1.28-14.19,3-15.69,9.74-17.81a21,21,0,0,0,8.59,16.16.54.54,0,0,0,.3.1h0a.54.54,0,0,0,.3-.1A21,21,0,0,0,43.3,51.27c6.74,2.14,8.51,3.61,9.79,17.83Z" transform="translate(8.81)"/><path class="cls-13" d="M42.18,61.22l-1.07-5.7a3,3,0,0,0-1.6-1.84l1.37,6.24-.13-.06-1.37-6.24-.31-.15,1.37,6.25-.58-.27-.13-.06-.12,0L38.24,53.1l-.12-.05,1.37,6.23-.21-.09,0,0L38.86,59l-1.37-6.23-.41-.19,1.36,6.23-.54-.25-.16-.07-.27-.13,0,0-.18-.08L36.76,58l-.7-.32-1.34-6.05c-.39,0-.61.27-.52.74l1.07,5.7a3,3,0,0,0,1.61,1.85L41,61.81C41.79,62.16,42.31,61.89,42.18,61.22Z" transform="translate(8.81)"/><polygon class="cls-14" points="48.66 59.45 49.25 59.72 47.87 53.48 47.29 53.21 48.66 59.45"/><polygon class="cls-14" points="46.71 58.55 47.25 58.8 45.88 52.57 45.34 52.33 46.71 58.55"/><path class="cls-14" d="M36.76,58l-1.37-6.21,0,0a1.34,1.34,0,0,0-.63-.14l1.34,6.05Z" transform="translate(8.81)"/><path class="cls-14" d="M40.88,59.92l-1.37-6.24h0l-.12-.05,1.37,6.24Z" transform="translate(8.81)"/><polygon class="cls-14" points="48.06 59.17 46.69 52.94 46.3 52.76 47.67 58.99 48.06 59.17"/><polygon class="cls-14" points="44.69 52.03 46.05 58.25 46.23 58.33 44.86 52.11 44.69 52.03"/><polygon class="cls-15" points="48.09 59.19 48.3 59.28 46.93 53.05 46.72 52.95 48.09 59.19"/><polygon class="cls-15" points="46.69 52.94 48.06 59.17 48.09 59.19 46.72 52.95 46.69 52.94"/><polygon class="cls-15" points="48.54 59.39 47.17 53.16 47.05 53.1 48.42 59.34 48.54 59.39"/><polygon class="cls-15" points="47.17 53.16 48.54 59.39 48.66 59.45 47.29 53.21 47.17 53.16"/><polygon class="cls-15" points="44.91 52.13 46.28 58.35 46.55 58.48 45.18 52.26 44.91 52.13"/><polygon class="cls-15" points="45.18 52.26 46.55 58.48 46.71 58.55 45.34 52.33 45.18 52.26"/><polygon class="cls-15" points="44.86 52.11 46.23 58.33 46.28 58.35 44.91 52.13 44.86 52.11"/><polygon class="cls-15" points="44.2 51.81 45.57 58.02 46.05 58.25 44.69 52.03 44.2 51.81"/><path class="cls-13" d="M26.33,61.25l1.07-5.7A3,3,0,0,1,29,53.71L27.62,60l.13-.06,1.38-6.25.31-.14-1.37,6.24.58-.26.12-.06.12-.06,1.37-6.23.13-.06L29,59.32l.21-.1h0l.38-.18L31,52.8l.42-.19-1.37,6.23.54-.25.17-.08.26-.12.06,0,.17-.07.49-.23.7-.32,1.33-6.05c.39,0,.61.27.53.74l-1.07,5.7A3,3,0,0,1,31.62,60l-4.14,1.88C26.72,62.2,26.2,61.93,26.33,61.25Z" transform="translate(8.81)"/><polygon class="cls-14" points="37.46 59.49 36.88 59.75 38.25 53.51 38.83 53.25 37.46 59.49"/><polygon class="cls-14" points="39.41 58.59 38.87 58.84 40.24 52.61 40.78 52.37 39.41 58.59"/><path class="cls-14" d="M31.75,58.06l1.36-6.21,0,0a1.34,1.34,0,0,1,.63-.14l-1.33,6.05Z" transform="translate(8.81)"/><path class="cls-14" d="M27.62,60,29,53.71h0l.12-.06L27.75,59.9Z" transform="translate(8.81)"/><polygon class="cls-14" points="38.07 59.21 39.44 52.97 39.82 52.8 38.45 59.03 38.07 59.21"/><polygon class="cls-14" points="41.44 52.07 40.07 58.28 39.9 58.36 41.26 52.15 41.44 52.07"/><polygon class="cls-15" points="38.03 59.22 37.82 59.32 39.19 53.09 39.4 52.99 38.03 59.22"/><polygon class="cls-15" points="39.44 52.97 38.07 59.21 38.03 59.22 39.4 52.99 39.44 52.97"/><polygon class="cls-15" points="37.58 59.43 38.95 53.19 39.07 53.14 37.7 59.37 37.58 59.43"/><polygon class="cls-15" points="38.95 53.19 37.58 59.43 37.46 59.49 38.83 53.25 38.95 53.19"/><polygon class="cls-15" points="41.21 52.17 39.84 58.39 39.57 58.51 40.94 52.29 41.21 52.17"/><polygon class="cls-15" points="40.94 52.29 39.57 58.51 39.41 58.59 40.78 52.37 40.94 52.29"/><polygon class="cls-15" points="41.26 52.15 39.9 58.36 39.84 58.39 41.21 52.17 41.26 52.15"/><polygon class="cls-15" points="41.92 51.85 40.55 58.06 40.07 58.28 41.44 52.07 41.92 51.85"/><path class="cls-11" d="M26.87,62.53a1.11,1.11,0,0,1-.85-.37,1.17,1.17,0,0,1-.21-1l1.07-5.7a3.47,3.47,0,0,1,1.9-2.22l4.12-1.87a2.11,2.11,0,0,1,.85-.21,1.34,1.34,0,0,1,.46.09,1.12,1.12,0,0,1,.5-.13h0a2.11,2.11,0,0,1,.86.19l4.14,1.88a3.49,3.49,0,0,1,1.91,2.23l1.07,5.7a1.14,1.14,0,0,1-.21,1,1.06,1.06,0,0,1-.85.37h0a2,2,0,0,1-.82-.2l-4.15-1.88a3.49,3.49,0,0,1-1.91-2.22l-.49-2.65-.51,2.68a3.48,3.48,0,0,1-1.91,2.23l-4.15,1.88A2,2,0,0,1,26.87,62.53ZM33.79,52.2a1.19,1.19,0,0,0-.42.11l-4.14,1.87a2.59,2.59,0,0,0-1.32,1.47l-1.07,5.7c0,.09,0,.14,0,.15l0,0a1,1,0,0,0,.39-.11l4.15-1.87A2.5,2.5,0,0,0,32.72,58l1-5.43a.55.55,0,0,1,.15-.28A.4.4,0,0,1,33.79,52.2Zm.84.13a.54.54,0,0,1,.14.27l1,5.39a2.52,2.52,0,0,0,1.32,1.47l4.14,1.87a1.09,1.09,0,0,0,.39.11s0,0,0-.13l-1.07-5.7a2.46,2.46,0,0,0-1.29-1.45l0,0-4.09-1.85a1.17,1.17,0,0,0-.43-.12A.38.38,0,0,1,34.63,52.33Z" transform="translate(8.81)"/><path class="cls-13" d="M34,53.15a1.23,1.23,0,1,1,0-2.45h.59a1.23,1.23,0,1,1,0,2.45Z" transform="translate(8.81)"/><path class="cls-11" d="M34.55,51.23a.71.71,0,1,1,0,1.39H34a.71.71,0,1,1,0-1.39h.59m0-1H34a1.75,1.75,0,1,0,0,3.49h.59a1.75,1.75,0,1,0,0-3.49Z" transform="translate(8.81)"/></g></g></g></svg>