<?xml version="1.0" encoding="UTF-8"?>
<svg width="67px" height="28px" viewBox="0 0 67 28" version="1.1" xmlns="http://www.w3.org/2000/svg" xmlns:xlink="http://www.w3.org/1999/xlink">
    <title>Fill 1</title>
    <g id="切圖" stroke="none" stroke-width="1" fill="none" fill-rule="evenodd">
        <g id="Artboard-Copy-7" transform="translate(-168.000000, -1360.000000)" fill="#FFFFFF">
            <g id="Group-19" transform="translate(142.000000, 1344.000000)">
                <g id="Group-31" transform="translate(26.000000, 15.000000)">
                    <g id="Group-3" transform="translate(0.000000, 1.000000)">
                        <path d="M32.3364129,1.23778747 C33.6101093,0.852131898 35.2553713,-0.154613623 36.5316184,0.852131898 C37.4294978,2.24453299 39.8995165,2.70661689 39.2269572,4.64104414 C40.4964022,6.26624416 41.9197452,8.11897217 43.5658574,9.35763813 C43.9408241,9.43670191 44.0896204,9.20478148 44.2401173,8.97198256 L43.7920278,8.74094061 C44.3174913,8.27622125 45.5869364,9.04928937 46.411693,8.58369153 C46.9346058,8.58369153 47.6836889,8.74094061 48.0595058,9.27945283 C48.432772,9.90142127 48.5092958,10.6727324 49.0322085,11.2911869 L49.3306514,11.1392087 C49.7064684,11.8340916 49.8552647,12.452546 50.3025038,13.071879 C53.0012437,13.9978038 54.2723892,17.3237536 56.6684349,18.7170332 C59.5873932,20.9598092 62.6551479,23.2034637 66.0987195,24.5176795 C65.9499232,24.9823989 66.4736862,24.9823989 66.6973058,25.137891 L66.6973058,25.2151978 C66.2492164,24.9823989 65.6523306,24.7504785 65.1999898,24.9042136 C65.6523306,25.6017319 66.7738296,25.2898692 67,26.0646943 L65.7985761,26.0646943 C65.7985761,26.2974932 66.0987195,26.2974932 66.2492164,26.3748 C65.6523306,26.1420011 65.0503433,26.6067204 64.6770771,25.8327738 C62.2070585,24.7504785 59.9598091,23.2034637 57.7907841,21.8119411 L57.7185117,21.887491 C59.4377467,23.5908763 61.8320918,24.8260283 63.7808982,25.986509 C64.4534575,26.3748 65.4244597,26.6067204 65.7985761,27.3016032 C65.5749565,27.37891 65.1999898,27.37891 65.1268671,27.6890158 L64.6022538,27.37891 C64.4534575,27.4579738 64.6022538,27.611709 64.5265803,27.6890158 L64.9006967,28 C62.3558548,26.9150692 59.51257,25.2898692 57.1913476,23.3580774 C56.0672978,22.5841308 54.9457988,21.9665548 53.8225993,21.1153014 C53.673803,21.1153014 53.4493331,21.0379945 53.3728093,21.2707935 C54.6482062,22.2749035 55.9933248,22.8942365 57.2653206,23.8227967 C54.9457988,22.6623161 52.1747865,20.9598092 50.3025038,18.6414834 C49.4794477,17.788473 48.2822752,16.0095379 46.861483,16.3196436 C46.3368698,16.6279923 45.5146639,16.553321 44.9126766,16.8607913 C44.4671379,16.8607913 44.0896204,16.3196436 43.6423812,16.7061776 C43.2682648,17.5574311 42.070242,16.8607913 41.8440716,17.788473 C41.0975393,18.0994572 39.7507202,17.8657798 39.5236995,18.7952185 L39.6002234,19.1808741 C38.1012069,19.8766354 36.0809782,19.6455934 35.0343025,21.1153014 C34.7316083,21.4227716 34.1355728,21.0379945 33.8379802,21.4227716 C33.9102527,21.2707935 33.7597558,21.1153014 33.6101093,21.1153014 C33.2359928,20.9598092 33.011523,21.3463433 32.7105293,21.4227716 C32.4886103,21.0379945 33.011523,20.9598092 32.93755,20.7278888 C32.2641404,20.4186616 31.9631467,21.3463433 31.4393837,21.656449 C31.5159076,21.0379945 32.1893171,20.9598092 32.4129367,20.4186616 C32.0371198,20.1893766 31.7395272,20.5741537 31.4393837,20.650582 C31.5898806,20.5741537 31.8874732,20.031249 31.4393837,20.031249 C31.8152007,19.4127945 32.6374066,19.6455934 32.8610262,18.9498321 L32.2641404,18.9498321 C32.8610262,18.4851128 33.535286,17.9439651 34.0573484,17.4801242 C33.8379802,17.4801242 33.3839389,16.8607913 33.011523,17.4019389 C33.011523,17.3237536 33.1637204,17.2473253 33.085496,17.170897 C32.7862029,16.8607913 32.4129367,17.4019389 32.0371198,17.4019389 C32.0371198,17.4801242 32.1136436,17.170897 31.8874732,17.0944687 L31.6647039,17.0944687 C31.8874732,16.9389766 32.1893171,16.553321 32.4886103,16.3196436 L32.3364129,16.16503 C33.4621632,15.4675117 34.582812,14.6944436 35.7085623,14.1532959 L35.9304814,13.920497 C35.6328887,13.5357199 35.0343025,13.5357199 34.7316083,13.920497 C35.7085623,13.8458256 34.8081321,12.7608948 35.7808348,12.6080382 C35.9304814,11.7567847 36.6795645,11.1392087 37.2781507,10.7517962 C36.3037475,9.82323597 35.9304814,8.11897217 34.8081321,7.58133844 C34.7316083,6.88469865 34.0573484,7.58133844 33.985076,6.88469865 C32.6374066,6.80475638 31.0652673,7.50139617 30.1656874,6.26624416 C29.4905773,6.03256675 28.5986497,6.11075205 27.9218391,6.18805886 C27.3215523,6.72832805 27.098783,7.50139617 26.7238163,8.11897217 C26.1226792,8.58369153 25.8259369,9.35763813 25.3778474,10.0542779 C24.7035876,10.9837166 23.8788309,12.1433188 22.6825087,12.5289744 L22.6825087,12.3752392 C21.8586023,13.5357199 20.0611429,13.071879 19.0127667,14.3079095 L18.9387936,13.9978038 C18.5629767,13.920497 18.2645338,14.1532959 18.1888603,14.4642801 L18.1888603,14.6180152 C17.664247,14.4642801 17.2918311,15.0809776 17.0690618,15.3893264 C15.7928146,16.7817275 13.6986129,16.7817275 12.3517938,17.9439651 C12.1995964,18.0203934 12.4249166,17.9439651 12.3517938,17.8657798 C9.87922436,18.409563 8.68290207,20.3413548 7.03508928,22.1984752 C6.58699984,22.9697863 5.83706646,23.4345057 5.24018071,24.0538387 C5.39067755,24.6731716 4.49024734,24.9042136 4.1909542,25.2151978 C4.49024734,24.6731716 5.16195637,24.2093308 5.24018071,23.5908763 C4.63904364,23.9001035 4.49024734,24.5949864 3.81768804,24.9042136 C3.44017056,24.5949864 4.1909542,24.3630659 3.96733461,24.0538387 L3.0694552,24.7504785 L3.89251133,23.5908763 C3.44017056,23.6655476 2.99123085,24.4412512 2.46831813,24.5176795 C2.32037209,24.7504785 2.0942017,24.7504785 1.79660909,24.7504785 L1.79660909,24.6731716 C2.0942017,24.4412512 2.61966522,23.9001035 3.0694552,23.4345057 C2.54484194,23.1261569 1.94455513,23.8227967 1.56703765,23.7454899 C1.41994188,23.6655476 1.49646569,23.2807706 1.121499,23.4345057 C1.49646569,23.1261569 1.86973185,22.8942365 2.02107895,22.4312741 C1.71923502,22.3530888 1.34681912,22.5841308 1.04497519,22.7405014 C1.121499,22.3530888 1.86973185,22.1194114 1.64611226,21.5009569 C0.67511009,21.3463433 0.82305613,22.3530888 0,22.5841308 C0.82305613,21.4227716 2.02107895,20.7278888 2.84413508,19.4918583 L2.766761,19.4127945 C4.3397505,17.6347379 6.28685643,16.553321 8.23226183,15.3893264 C9.8061016,14.4642801 11.8986028,13.9978038 13.0252034,12.452546 C13.4732928,11.8340916 13.920532,11.2911869 14.2215257,10.6727324 C14.4459955,10.7517962 14.5233696,10.5181188 14.5956421,10.3652621 C15.7196919,9.66950083 16.9177147,9.20478148 18.2645338,9.20478148 C18.8631201,8.58369153 19.9880202,8.97198256 20.4352593,8.11897217 C22.0065483,6.18805886 22.6059848,3.78979073 23.9519537,1.85624196 C24.4017437,1.23778747 24.9255067,0.231041948 25.8259369,0 C28.0714857,0.231041948 30.2413609,0.616697518 32.3364129,1.23778747" id="Fill-1"></path>
                    </g>
                </g>
            </g>
        </g>
    </g>
</svg>